<svg width="200" height="200" viewBox="0 0 200 200" fill="none" xmlns="http://www.w3.org/2000/svg">
  <defs>
    <linearGradient id="gradient" x1="0%" y1="0%" x2="100%" y2="100%">
      <stop offset="0%" style="stop-color:#667eea;stop-opacity:1" />
      <stop offset="100%" style="stop-color:#764ba2;stop-opacity:1" />
    </linearGradient>
  </defs>

  <!-- Shield Background -->
  <path d="M100 20 L170 50 L170 110 Q170 150 100 180 Q30 150 30 110 L30 50 Z"
        fill="url(#gradient)" opacity="0.9"/>

  <!-- Shield Border -->
  <path d="M100 20 L170 50 L170 110 Q170 150 100 180 Q30 150 30 110 L30 50 Z"
        stroke="white" stroke-width="4" fill="none"/>

  <!-- Inner Shield Detail -->
  <path d="M100 40 L150 60 L150 105 Q150 130 100 150 Q50 130 50 105 L50 60 Z"
        fill="white" opacity="0.3"/>

  <!-- Star/Sparkle -->
  <circle cx="100" cy="90" r="25" fill="white" opacity="0.8"/>
  <path d="M100 70 L105 85 L120 90 L105 95 L100 110 L95 95 L80 90 L95 85 Z"
        fill="url(#gradient)"/>
</svg>
